<svg width="20" height="20" viewBox="0 0 20 20" fill="none" xmlns="http://www.w3.org/2000/svg">
<g clip-path="url(#clip0_276_3680)">
<path fill-rule="evenodd" clip-rule="evenodd" d="M1 1C1 0.447715 1.44772 4.47035e-08 2 4.47035e-08H3.5C4.32843 4.47035e-08 5 0.671572 5 1.5V10H16.1327L17.0101 3.85858C17.0882 3.31184 17.5947 2.93195 18.1414 3.01005C18.6882 3.08816 19.0681 3.59469 18.99 4.14142L18.0513 10.7121C17.9457 11.4511 17.3128 12 16.5664 12H5V14H15C16.6569 14 18 15.3431 18 17C18 18.6569 16.6569 20 15 20C13.3431 20 12 18.6569 12 17C12 16.6494 12.0602 16.3128 12.1707 16H6.82929C6.93985 16.3128 7 16.6494 7 17C7 18.6569 5.65685 20 4 20C2.34315 20 1 18.6569 1 17C1 15.6938 1.83481 14.5825 3 14.1707V2H2C1.44772 2 1 1.55228 1 1ZM14 17C14 16.4477 14.4477 16 15 16C15.5523 16 16 16.4477 16 17C16 17.5523 15.5523 18 15 18C14.4477 18 14 17.5523 14 17ZM3 17C3 16.4477 3.44772 16 4 16C4.55228 16 5 16.4477 5 17C5 17.5523 4.55228 18 4 18C3.44772 18 3 17.5523 3 17Z" fill="#746D6D"/>
<path d="M12 1.17158C12 0.619291 11.5523 0.171576 11 0.171576C10.4477 0.171576 10 0.619291 10 1.17158L10 3L8.17157 3C7.61929 3 7.17157 3.44772 7.17157 4C7.17157 4.55229 7.61929 5 8.17157 5L10 5L10 6.82843C10 7.38071 10.4477 7.82843 11 7.82843C11.5523 7.82843 12 7.38071 12 6.82843L12 5L13.8284 5C14.3807 5 14.8284 4.55229 14.8284 4C14.8284 3.44772 14.3807 3 13.8284 3L12 3L12 1.17158Z" fill="#746D6D"/>
</g>
<defs>
<clipPath id="clip0_276_3680">
<rect width="20" height="20" fill="white"/>
</clipPath>
</defs>
</svg>
